<?xml version="1.0" standalone="no"?>
<!DOCTYPE svg PUBLIC "-//W3C//DTD SVG 20010904//EN"
 "http://www.w3.org/TR/2001/REC-SVG-20010904/DTD/svg10.dtd">
<svg version="1.0" xmlns="http://www.w3.org/2000/svg"
 width="1024.000000pt" height="1024.000000pt" viewBox="0 0 1024.000000 1024.000000"
 preserveAspectRatio="xMidYMid meet">

<g transform="translate(0.000000,1024.000000) scale(0.100000,-0.100000)"
fill="white" stroke="none">
<path d="M4892 8121 l-64 -6 -49 -135 c-117 -317 -241 -521 -433 -714 -225
-226 -344 -300 -852 -531 -378 -173 -560 -297 -785 -533 -115 -122 -121 -120
-43 15 91 156 213 301 335 399 116 92 200 141 541 308 412 202 533 280 698
445 123 123 215 250 288 396 52 106 135 315 128 322 -3 4 -50 -2 -105 -12
l-99 -18 -31 -81 c-62 -165 -179 -343 -305 -466 -147 -145 -307 -251 -562
-375 -77 -37 -206 -101 -289 -142 l-150 -74 55 56 c66 68 256 213 475 360 270
183 386 283 497 430 48 63 144 233 136 241 -9 8 -268 -86 -395 -143 -140 -63
-319 -163 -452 -252 -297 -200 -602 -505 -802 -802 -740 -1101 -683 -2529 142
-3570 105 -133 335 -363 468 -468 481 -381 1043 -602 1654 -652 122 -9 150 -9
166 2 11 8 63 51 116 96 110 93 257 195 460 320 337 208 581 427 785 704 123
166 228 404 261 589 19 106 17 290 -4 370 -51 193 -188 373 -296 387 -70 9
-131 -44 -131 -114 0 -15 14 -75 32 -133 28 -95 31 -117 31 -240 0 -114 -4
-150 -26 -234 -33 -122 -75 -217 -143 -321 -231 -355 -637 -618 -1106 -720
-93 -20 -339 -45 -446 -45 -7 0 -24 -12 -37 -26 -36 -39 -34 -87 6 -126 l30
-31 152 6 c172 7 282 23 451 67 165 42 397 140 586 246 l65 36 -30 -32 c-128
-137 -373 -295 -584 -375 -390 -148 -864 -108 -1306 110 -196 96 -445 267
-589 403 -55 52 -110 113 -86 95 41 -30 267 -135 360 -166 186 -62 346 -87
565 -87 430 0 843 114 1189 328 118 73 279 194 300 226 24 37 20 80 -10 115
-21 25 -34 31 -65 31 -31 0 -48 -9 -91 -45 -129 -109 -237 -180 -403 -263
-301 -150 -735 -235 -1040 -203 -402 42 -706 180 -960 435 -262 263 -374 543
-375 936 -1 98 -5 150 -13 161 -28 37 -88 50 -129 28 -38 -21 -48 -69 -49
-237 0 -136 -2 -153 -13 -127 -41 98 -66 267 -66 456 0 295 67 531 211 746
209 311 471 516 906 709 92 41 177 79 188 84 588 262 873 474 1172 875 138
185 215 335 349 682 24 62 62 149 84 194 23 44 40 82 38 84 -2 1 -46 6 -99 10
l-95 7 -41 -94 c-23 -51 -71 -167 -108 -258 -36 -91 -91 -212 -122 -270 -164
-312 -441 -610 -743 -800 -131 -82 -264 -149 -525 -266 -431 -191 -570 -269
-780 -433 -38 -30 -72 -57 -75 -61 -3 -3 -34 -30 -69 -60 l-64 -55 28 45 c63
100 114 161 234 280 173 172 333 276 616 399 176 77 438 206 521 258 360 223
641 540 794 895 57 133 150 383 150 404 0 15 -12 15 -128 5z"/>
<path d="M5572 8022 c-76 -76 -128 -179 -187 -367 -118 -379 -179 -527 -285
-690 -235 -360 -547 -623 -1019 -859 -128 -65 -170 -90 -179 -111 -18 -40 -14
-71 14 -104 42 -50 71 -44 273 59 490 249 758 479 1071 920 244 343 386 467
630 550 81 28 283 38 386 21 433 -74 893 -449 1211 -990 101 -171 211 -436
243 -586 6 -27 13 -59 17 -70 3 -11 -46 81 -109 205 -196 385 -347 600 -589
837 -230 226 -453 361 -707 429 -78 21 -126 27 -247 31 -167 4 -186 0 -217
-54 -23 -38 -16 -72 19 -107 24 -25 29 -25 157 -25 110 1 146 -3 229 -24 447
-118 861 -527 1185 -1172 324 -646 379 -1109 205 -1710 -44 -154 -90 -270
-159 -411 -51 -103 -104 -190 -104 -170 0 5 11 54 24 110 40 165 50 252 49
421 0 167 -20 321 -48 375 -33 63 -93 77 -144 34 -37 -31 -39 -62 -15 -199 22
-125 15 -380 -15 -524 -62 -297 -185 -542 -386 -771 -104 -119 -288 -276 -425
-365 l-45 -28 48 54 c239 270 354 432 453 634 162 333 211 659 140 937 -29
113 -75 214 -116 253 -39 37 -88 39 -124 6 -41 -39 -42 -71 -2 -159 56 -124
70 -196 70 -367 1 -223 -38 -384 -146 -599 -115 -228 -244 -398 -514 -676
-150 -155 -270 -292 -316 -362 -45 -68 -111 -198 -104 -206 8 -8 161 34 310
85 315 107 624 278 897 494 133 105 363 335 468 468 881 1111 881 2651 0 3762
-105 133 -335 363 -468 468 -286 227 -596 394 -936 506 -152 50 -368 105 -414
105 -12 0 -45 -24 -79 -58z"/>
<path d="M5878 6950 c-96 -12 -282 -66 -358 -103 -54 -27 -67 -38 -79 -69 -12
-33 -11 -41 5 -75 15 -29 27 -40 55 -47 31 -8 49 -3 130 31 146 63 215 77 359
78 134 0 215 -17 336 -71 112 -49 253 -158 337 -259 65 -78 97 -99 141 -91 38
7 61 29 77 74 9 28 8 37 -14 74 -50 85 -216 238 -342 314 -184 113 -441 170
-647 144z"/>
<path d="M5633 6365 c-40 -17 -73 -69 -73 -115 0 -76 72 -139 144 -126 128 24
149 192 29 242 -40 17 -59 17 -100 -1z"/>
<path d="M6963 6125 c-44 -19 -78 -88 -69 -138 9 -47 49 -95 89 -105 94 -25
188 60 167 152 -19 86 -104 127 -187 91z"/>
<path d="M3310 5723 c-39 -14 -40 -22 -40 -485 0 -519 -14 -468 125 -468 132
0 125 -11 125 200 l0 180 189 0 c185 0 190 1 205 22 18 26 21 90 6 119 -10 18
-23 19 -205 19 l-195 0 0 130 0 130 210 0 c238 0 225 -5 224 82 -1 81 13 78
-328 77 -165 0 -308 -3 -316 -6z"/>
<path d="M4168 5719 c-17 -9 -18 -42 -18 -458 0 -370 2 -451 14 -467 14 -18
31 -19 321 -22 223 -2 311 0 321 9 9 7 14 31 14 64 0 91 14 85 -216 85 l-204
0 0 394 0 394 -22 6 c-37 10 -192 6 -210 -5z"/>
<path d="M4938 5723 c-17 -4 -18 -29 -18 -343 0 -322 1 -342 21 -397 57 -150
214 -227 469 -226 242 0 398 71 467 211 l28 57 3 340 c3 313 2 341 -14 352
-27 20 -198 18 -218 -3 -14 -13 -16 -57 -16 -330 0 -349 -1 -357 -63 -411 -44
-39 -91 -53 -177 -53 -118 0 -190 34 -227 110 -22 43 -23 52 -23 362 0 303 -1
318 -19 328 -19 10 -178 12 -213 3z"/>
<path d="M6107 5723 c-18 -17 3 -55 138 -251 l145 -211 -121 -173 c-182 -258
-201 -289 -188 -305 8 -9 40 -13 114 -13 57 0 110 3 118 6 8 3 66 84 129 180
62 96 116 174 119 174 3 0 58 -79 122 -175 80 -120 124 -176 139 -180 13 -3
70 -5 128 -3 105 3 105 3 105 28 0 16 -55 105 -148 240 -81 118 -147 219 -148
223 0 5 62 99 139 210 76 111 142 209 145 218 3 9 0 22 -6 28 -16 16 -208 15
-230 -1 -10 -7 -64 -84 -120 -171 l-103 -158 -112 164 c-61 91 -119 167 -128
171 -21 8 -229 8 -237 -1z"/>
<path d="M2895 4400 c-30 -34 -29 -103 3 -232 75 -292 256 -540 515 -708 152
-98 261 -144 444 -186 101 -23 141 -27 278 -28 199 -1 297 19 483 96 53 22 76
38 87 59 29 55 15 108 -35 134 -40 21 -60 19 -116 -11 -130 -69 -225 -89 -414
-88 -138 1 -168 5 -272 32 -358 93 -628 326 -753 651 -22 55 -38 120 -43 164
l-7 71 -65 33 c-78 38 -82 39 -105 13z"/>
<path d="M3418 4154 c-78 -42 -76 -178 2 -219 60 -31 135 -10 170 48 52 84 -8
188 -107 187 -21 -1 -50 -7 -65 -16z"/>
<path d="M5755 3996 c-43 -18 -68 -61 -68 -114 0 -52 25 -90 76 -115 101 -50
211 67 158 170 -32 64 -100 88 -166 59z"/>
<path d="M5464 2256 c-17 -8 -57 -40 -90 -72 -55 -55 -57 -59 -35 -62 25 -4
212 15 244 24 28 9 22 61 -12 95 -32 32 -59 35 -107 15z"/>
</g>
</svg>
